/* XPM */
static char *_206be49678c4ad186738984f4951896HRzPtFqiLIOxssfc[] = {
/* columns rows colors chars-per-pixel */
"100 100 7 1 ",
"  c None",
". c black",
"X c #7B8A32",
"o c #B3DB3B",
"O c #8BC34A",
"+ c #03A9F4",
"@ c white",
/* pixels */
"                                                                                                    ",
"                                                                                                    ",
"                                                                                                    ",
"                                                                                                    ",
"                                                                                                    ",
"                                                                                                    ",
"                                                                                                    ",
"                                                                                                    ",
"                                                                                                    ",
"                                                                                                    ",
"                                                                                                    ",
"                                                                                                    ",
"                                                                                                    ",
"                                                                                                    ",
"                                                                                                    ",
"                                                                                                    ",
"                                                                                                    ",
"                                                                                                    ",
"                                                                                                    ",
"                              .                             .                                       ",
"                             .O.                           .O.                                      ",
"                              .O.  ...................... .O.                                       ",
"                               .O..XXXXXXXXXXXXXXXXXXXXX..O.                                        ",
"                                ..XOOOOOOOOOOOOOOOOOOOOOX..                                         ",
"                                .XOOOOOOOOOOOOOOOOOOOOOOOX.                                         ",
"                               .XOOOOOOOOOOOOOOOOOOOOOOOOOX.                                        ",
"                              .XOOOOOOOOOOOOOOOOOOOOOOOOOOOX.                                       ",
"                             .XOOOOOOOOOOOOOOOOOOOOOOOOOOOOOX.                                      ",
"                            .XOOOOOOOOOOO.........OOOOOOOOOOOX.                                     ",
"                            .XOOOOOOOOOO.@@@@@@@@@.OOOOOOOOOOX.                                     ",
"                            .XOOOOOOOOOO.@@@@@@@@@.OOOOOOOOOOX.                                     ",
"                            .XOOOOOOOOOO.@@@@@@@@@.OOOOOOOOOOX.                                     ",
"                            .XOOOOOOOOOO.@@@@@@@@@.OOOOOOOOOOX.                                     ",
"                            .XOOOOOOOOOO.@@@@@@@@@.OOOOOOOOOOX.                                     ",
"                            .XOOOOOOOOOO.@@@@ .....OOOOOOOOOOX.                                     ",
"                            .XOOOOOOOOOO.@@@@@.....OOOOOOOOOOX.                                     ",
"                            .XOOOOOOOOOO.@@@@@.....OOOOOOOOOOX.                                     ",
"                            .XOOOOOOOOOO.@@@@@..@@.OOOOOOOOOOX.                                     ",
"                            .XOOOOooOOOO. @@@ ..@+.OOOOooOOOOX.                                     ",
"                            .XOOOooooOOOO.........OOOOooooOOOX.                                     ",
"                            .XOOOOooOOOOOOOOOOOOOOOOOOOooOOOOX.                                     ",
"                            .XOOOOOOOOOOOOOOOOOOOOOOOOOOOOOOOX.                                     ",
"                            .XOOOOOOOOOOOOOOOOOOOOOOOOOOOOOOOX.                                     ",
"                            .XOOOOOOOOOOOOOOOOOOOOOOOOOOOOOOOX.                                     ",
"                            .XOOOOOOOOOOOOOOOOOOOOOOOOOOOOOOOX.                                     ",
"                            .XOOOOOOOOOOOOOOOOOOOOOOOOOOOOOOOX.                                     ",
"                            .XOOOOOOOOOOOOOOOOOOOOOOOOOOOOOOOX.                                     ",
"                            .XOOOOOOOOOOOOOOOOOOOOOOOOOOOOOOOX.                                     ",
"                            .XOOOOOOOOOOOOOOOOOOOOOOOOOOOOOOOX.                                     ",
"                            .XOOOOOOOOOOOOOOOOOOOOOOOOOOOOOOOX.                                     ",
"                            .XOOOOOOOOOOOOOOOOOOOOOOOOOOOOOOOX.                                     ",
"                            .XOOOOOOOOOOOOOOOOOOOOOOOOOOOOOOOX.                                     ",
"                            .XOOOOOOOOOOOOOOOOOOOOOOOOOOOOOOOX.                                     ",
"                             .XOOOOOOOOOOOOOOOOOOOOOOOOOOOOOX.                                      ",
"                              .XOOOOOOOOOOOOOOOOOOOOOOOOOOOX.                                       ",
"                               .XOOOOOOOOOOOOOOOOOOOOOOOOOX.                                        ",
"                                .XOOOOOOOOOOOOOOOOOOOOOOOX.                                         ",
"                                 .XXXXXXXXXXXXXXXXXXXXXXX.                                          ",
"                                  .......................                                           ",
"                                  .OOOOO.         .OOOOO.                                           ",
"                                   .OOO.           .OOO.                                            ",
"                                    .O.             .O.                                             ",
"                                    .O.             .O.                                             ",
"                                    .O.             .O.                                             ",
"                                    .O.             .O.                                             ",
"                                    .O.             .O.                                             ",
"                                    .O.              .                                              ",
"                                     .                                                              ",
"                                                                                                    ",
"                                                                                                    ",
"                                                                                                    ",
"                                                                                                    ",
"                                                                                                    ",
"                                                                                                    ",
"                                                                                                    ",
"                                                                                                    ",
"                                                                                                    ",
"                                                                                                    ",
"                                                                                                    ",
"                                                                                                    ",
"                                                                                                    ",
"                                                                                                    ",
"                                                                                                    ",
"                                                                                                    ",
"                                                                                                    ",
"                                                                                                    ",
"                                                                                                    ",
"                                                                                                    ",
"                                                                                                    ",
"                                                                                                    ",
"                                                                                                    ",
"                                                                                                    ",
"                                                                                                    ",
"                                                                                                    ",
"                                                                                                    ",
"                                                                                                    ",
"                                                                                                    ",
"                                                                                                    ",
"                                                                                                    ",
"                                                                                                    "
};
