/* XPM */
static char *b7aea9138116435fede2142eac43a6efhWxu3hs3vAGHI42H[] = {
/* columns rows colors chars-per-pixel */
"100 100 5 1 ",
"  c None",
". c black",
"X c #366136",
"o c #4C4F4C",
"O c #FFC107",
/* pixels */
"                                                                                                    ",
"                                                                                                    ",
"                                                                                                    ",
"                                                                                                    ",
"                                                                                                    ",
"                                                                                                    ",
"                                                                                                    ",
"                                                                                                    ",
"                                                                                                    ",
"                                                                                                    ",
"                                                                                                    ",
"                                                                                                    ",
"                                                                                                    ",
"                                                                                                    ",
"                                                                                                    ",
"                                                                                                    ",
"                                                                                                    ",
"               .......................................................................              ",
"               .......................................................................              ",
"               ..XXXXXXooXXXXXXooooooooooooooooooooooooooooooooooooooooXXXXXooXXXXXX..              ",
"               ..XXXXXXooXXXXXXooooooooooooooooooooooooooooooooooooooooXXXXXooXXXXXX..              ",
"                 ...................................................................                ",
"                 ...................................................................                ",
"                 ..XXooXXXoooooooooooooooooooooooooooooooooooooooooooooooooXXXooXX..                ",
"                 ..XXooXXXoooooooooooooooooooooooooooooooooooooooooooooooooXXXooXX..                ",
"                 ..XXooXXXoooooooooooooooooooooooooooooooooooooooooooooooooXXXooXX..                ",
"                 ..XXooXXXoooooooooOOOOOOOOOOOOOOOOOOOOOOOOOOOOOOOOooooooooXXXooXX..                ",
"                 ..XXooXXXoooooooooOOOOOOOOOOOOOOOOOOOOOOOOOOOOOOOOooooooooXXXooXX..                ",
"                 ..XXooXXXoooooooooOOOOOOOOOOOOOOOOOOOOOOOOOOOOOOOOooooooooXXXooXX..                ",
"                 ..XXooXXXoooooooooOOOOOOOOOOOOOOOOOOOOOOOOOOOOOOOOooooooooXXXooXX..                ",
"                 ..XXooXXXoooooooooOOOOOOOOOOOOOOOOOOOOOOOOOOOOOOOOooooooooXXXooXX..                ",
"                 ..XXooXXXoooooooooOOOOOOOOOOOOOOOOOOOOOOOOOOOOOOOOooooooooXXXooXX..                ",
"                 ..XXooXXXoooooooooOOOOOOOOOOOOOOOOOOOOOOOOOOOOOOOOooooooooXXXooXX..                ",
"                 ..XXooXXXoooooooooOOOOOOOOOOOOOOOOOOOOOOOOOOOOOOOOooooooooXXXooXX..                ",
"                 ..XXooXXXoooooooooOOOOOOOOooooooooooooooooooooooooooooooooXXXooXX..                ",
"                 ..XXooXXXoooooooooOOOOOOOOooooooooooooooooooooooooooooooooXXXooXX..                ",
"                 ..XXooXXXoooooooooOOOOOOOOooooooooooooooooooooooooooooooooXXXooXX..                ",
"                 ..XXooXXXoooooooooOOOOOOOOooooooooooooooooooooooooooooooooXXXooXX..                ",
"                 ..XXooXXXoooooooooOOOOOOOOooooooooooooooooooooooooooooooooXXXooXX..                ",
"                 ..XXooXXXoooooooooOOOOOOOOooooooooooooooooooooooooooooooooXXXooXX..                ",
"                 ..XXooXXXoooooooooOOOOOOOOooooooooooooooooooooooooooooooooXXXooXX..                ",
"                 ..XXooXXXoooooooooOOOOOOOOooooooooooooooooooooooooooooooooXXXooXX..                ",
"                 ..XXooXXXoooooooooOOOOOOOOOOOOOOOOOOOOOOOOOOooooooooooooooXXXooXX..                ",
"                 ..XXooXXXoooooooooOOOOOOOOOOOOOOOOOOOOOOOOOOooooooooooooooXXXooXX..                ",
"                 ..XXooXXXoooooooooOOOOOOOOOOOOOOOOOOOOOOOOOOooooooooooooooXXXooXX..                ",
"                 ..XXooXXXoooooooooOOOOOOOOOOOOOOOOOOOOOOOOOOooooooooooooooXXXooXX..                ",
"                 ..XXooXXXoooooooooOOOOOOOOOOOOOOOOOOOOOOOOOOooooooooooooooXXXooXX..                ",
"                 ..XXooXXXoooooooooOOOOOOOOOOOOOOOOOOOOOOOOOOooooooooooooooXXXooXX..                ",
"                 ..XXooXXXoooooooooOOOOOOOOOOOOOOOOOOOOOOOOOOooooooooooooooXXXooXX..                ",
"                 ..XXooXXXoooooooooOOOOOOOOOOOOOOOOOOOOOOOOOOooooooooooooooXXXooXX..                ",
"                 ..XXooXXXoooooooooOOOOOOOOooooooooooooooooooooooooooooooooXXXooXX..                ",
"                 ..XXooXXXoooooooooOOOOOOOOooooooooooooooooooooooooooooooooXXXooXX..                ",
"                 ..XXooXXXoooooooooOOOOOOOOooooooooooooooooooooooooooooooooXXXooXX..                ",
"                 ..XXooXXXoooooooooOOOOOOOOooooooooooooooooooooooooooooooooXXXooXX..                ",
"                 ..XXooXXXoooooooooOOOOOOOOooooooooooooooooooooooooooooooooXXXooXX..                ",
"                 ..XXooXXXoooooooooOOOOOOOOooooooooooooooooooooooooooooooooXXXooXX..                ",
"                 ..XXooXXXoooooooooOOOOOOOOooooooooooooooooooooooooooooooooXXXooXX..                ",
"                 ..XXooXXXoooooooooOOOOOOOOooooooooooooooooooooooooooooooooXXXooXX..                ",
"                 ..XXooXXXoooooooooOOOOOOOOooooooooooooooooooooooooooooooooXXXooXX..                ",
"                 ..XXooXXXoooooooooOOOOOOOOooooooooooooooooooooooooooooooooXXXooXX..                ",
"                 ..XXooXXXoooooooooOOOOOOOOooooooooooooooooooooooooooooooooXXXooXX..                ",
"                 ..XXooXXXoooooooooOOOOOOOOooooooooooooooooooooooooooooooooXXXooXX..                ",
"                 ..XXooXXXoooooooooOOOOOOOOooooooooooooooooooooooooooooooooXXXooXX..                ",
"                 ..XXooXXXoooooooooOOOOOOOOooooooooooooooooooooooooooooooooXXXooXX..                ",
"                 ..XXooXXXoooooooooOOOOOOOOooooooooooooooooooooooooooooooooXXXooXX..                ",
"                 ..XXooXXXoooooooooOOOOOOOOooooooooooooooooooooooooooooooooXXXooXX..                ",
"                 ..XXooXXXoooooooooOOOOOOOOooooooooooooooooooooooooooooooooXXXooXX..                ",
"                 ..XXooXXXoooooooooOOOOOOOOooooooooooooooooooooooooooooooooXXXooXX..                ",
"                 ..XXooXXXoooooooooOOOOOOOOooooooooooooooooooooooooooooooooXXXooXX..                ",
"                 ..XXooXXXoooooooooOOOOOOOOooooooooooooooooooooooooooooooooXXXooXX..                ",
"                 ..XXooXXXoooooooooOOOOOOOOooooooooooooooooooooooooooooooooXXXooXX..                ",
"                 ..XXooXXXoooooooooOOOOOOOOooooooooooooooooooooooooooooooooXXXooXX..                ",
"                 ..XXooXXXoooooooooooooooooooooooooooooooooooooooooooooooooXXXooXX..                ",
"                 ..XXooXXXoooooooooooooooooooooooooooooooooooooooooooooooooXXXooXX..                ",
"                 ..XXooXXXoooooooooooooooooooooooooooooooooooooooooooooooooXXXooXX..                ",
"                 ...................................................................                ",
"                 ...................................................................                ",
"               ..XXXXXXooXXXXXXXXXXXXXXXXXXXXXXXXXXXXXXXXXXXXXXXXXXXXXXXXXXXooXXXXXX..              ",
"               ..XXXXXXooXXXXXXXXXXXXXXXXXXXXXXXXXXXXXXXXXXXXXXXXXXXXXXXXXXXooXXXXXX..              ",
"                 ...................................................................                ",
"                 ...................................................................                ",
"                                                                                                    ",
"                                                                                                    ",
"                                                                                                    ",
"                                                                                                    ",
"                                                                                                    ",
"                                                                                                    ",
"                                                                                                    ",
"                                                                                                    ",
"                                                                                                    ",
"                                                                                                    ",
"                                                                                                    ",
"                                                                                                    ",
"                                                                                                    ",
"                                                                                                    ",
"                                                                                                    ",
"                                                                                                    ",
"                                                                                                    ",
"                                                                                                    ",
"                                                                                                    "
};
