/* XPM */
static char *_ea9ae5850e34418d64c22a689e638fcxxjkSi8X1I4yhQlB[] = {
/* columns rows colors chars-per-pixel */
"100 100 5 1 ",
"  c None",
". c black",
"X c #366136",
"o c #FFC107",
"O c white",
/* pixels */
"                                                                                                    ",
"                                                                                                    ",
"                                                                                                    ",
"                                                                                                    ",
"                                                                                                    ",
"                                                                                                    ",
"                                                                                                    ",
"                                                                                                    ",
"                                                                                                    ",
"                                                                                                    ",
"                                                                                                    ",
"                                                                                                    ",
"                                                                                                    ",
"                                                                                                    ",
"                                                                                                    ",
"                                                                                                    ",
"                                                                                                    ",
"               .......................................................................              ",
"               .......................................................................              ",
"               ..XXXXXXOOXXXXXXOOOOOOOOOOOOOOOOOOOOOOOOOOOOOOOOOOOOOOOOXXXXXOOXXXXXX..              ",
"               ..XXXXXXOOXXXXXXOOOOOOOOOOOOOOOOOOOOOOOOOOOOOOOOOOOOOOOOXXXXXOOXXXXXX..              ",
"                 ...................................................................                ",
"                 ...................................................................                ",
"                 ..XXOOXXXOOOOOOOOOOOOOOOOOOOOOOOOOOOOOOOOOOOOOOOOOOOOOOOOOXXXOOXX..                ",
"                 ..XXOOXXXOOOOOOOOOOOOOOOOOOOOOOOOOOOOOOOOOOOOOOOOOOOOOOOOOXXXOOXX..                ",
"                 ..XXOOXXXOOOOOOOOOOOOOOOOOOOOOOOOOOOOOOOOOOOOOOOOOOOOOOOOOXXXOOXX..                ",
"                 ..XXOOXXXOOOOOOOOOooooooooooooooooooooooooooooooooOOOOOOOOXXXOOXX..                ",
"                 ..XXOOXXXOOOOOOOOOooooooooooooooooooooooooooooooooOOOOOOOOXXXOOXX..                ",
"                 ..XXOOXXXOOOOOOOOOooooooooooooooooooooooooooooooooOOOOOOOOXXXOOXX..                ",
"                 ..XXOOXXXOOOOOOOOOooooooooooooooooooooooooooooooooOOOOOOOOXXXOOXX..                ",
"                 ..XXOOXXXOOOOOOOOOooooooooooooooooooooooooooooooooOOOOOOOOXXXOOXX..                ",
"                 ..XXOOXXXOOOOOOOOOooooooooooooooooooooooooooooooooOOOOOOOOXXXOOXX..                ",
"                 ..XXOOXXXOOOOOOOOOooooooooooooooooooooooooooooooooOOOOOOOOXXXOOXX..                ",
"                 ..XXOOXXXOOOOOOOOOooooooooooooooooooooooooooooooooOOOOOOOOXXXOOXX..                ",
"                 ..XXOOXXXOOOOOOOOOooooooooOOOOOOOOOOOOOOOOOOOOOOOOOOOOOOOOXXXOOXX..                ",
"                 ..XXOOXXXOOOOOOOOOooooooooOOOOOOOOOOOOOOOOOOOOOOOOOOOOOOOOXXXOOXX..                ",
"                 ..XXOOXXXOOOOOOOOOooooooooOOOOOOOOOOOOOOOOOOOOOOOOOOOOOOOOXXXOOXX..                ",
"                 ..XXOOXXXOOOOOOOOOooooooooOOOOOOOOOOOOOOOOOOOOOOOOOOOOOOOOXXXOOXX..                ",
"                 ..XXOOXXXOOOOOOOOOooooooooOOOOOOOOOOOOOOOOOOOOOOOOOOOOOOOOXXXOOXX..                ",
"                 ..XXOOXXXOOOOOOOOOooooooooOOOOOOOOOOOOOOOOOOOOOOOOOOOOOOOOXXXOOXX..                ",
"                 ..XXOOXXXOOOOOOOOOooooooooOOOOOOOOOOOOOOOOOOOOOOOOOOOOOOOOXXXOOXX..                ",
"                 ..XXOOXXXOOOOOOOOOooooooooOOOOOOOOOOOOOOOOOOOOOOOOOOOOOOOOXXXOOXX..                ",
"                 ..XXOOXXXOOOOOOOOOooooooooooooooooooooooooooOOOOOOOOOOOOOOXXXOOXX..                ",
"                 ..XXOOXXXOOOOOOOOOooooooooooooooooooooooooooOOOOOOOOOOOOOOXXXOOXX..                ",
"                 ..XXOOXXXOOOOOOOOOooooooooooooooooooooooooooOOOOOOOOOOOOOOXXXOOXX..                ",
"                 ..XXOOXXXOOOOOOOOOooooooooooooooooooooooooooOOOOOOOOOOOOOOXXXOOXX..                ",
"                 ..XXOOXXXOOOOOOOOOooooooooooooooooooooooooooOOOOOOOOOOOOOOXXXOOXX..                ",
"                 ..XXOOXXXOOOOOOOOOooooooooooooooooooooooooooOOOOOOOOOOOOOOXXXOOXX..                ",
"                 ..XXOOXXXOOOOOOOOOooooooooooooooooooooooooooOOOOOOOOOOOOOOXXXOOXX..                ",
"                 ..XXOOXXXOOOOOOOOOooooooooooooooooooooooooooOOOOOOOOOOOOOOXXXOOXX..                ",
"                 ..XXOOXXXOOOOOOOOOooooooooOOOOOOOOOOOOOOOOOOOOOOOOOOOOOOOOXXXOOXX..                ",
"                 ..XXOOXXXOOOOOOOOOooooooooOOOOOOOOOOOOOOOOOOOOOOOOOOOOOOOOXXXOOXX..                ",
"                 ..XXOOXXXOOOOOOOOOooooooooOOOOOOOOOOOOOOOOOOOOOOOOOOOOOOOOXXXOOXX..                ",
"                 ..XXOOXXXOOOOOOOOOooooooooOOOOOOOOOOOOOOOOOOOOOOOOOOOOOOOOXXXOOXX..                ",
"                 ..XXOOXXXOOOOOOOOOooooooooOOOOOOOOOOOOOOOOOOOOOOOOOOOOOOOOXXXOOXX..                ",
"                 ..XXOOXXXOOOOOOOOOooooooooOOOOOOOOOOOOOOOOOOOOOOOOOOOOOOOOXXXOOXX..                ",
"                 ..XXOOXXXOOOOOOOOOooooooooOOOOOOOOOOOOOOOOOOOOOOOOOOOOOOOOXXXOOXX..                ",
"                 ..XXOOXXXOOOOOOOOOooooooooOOOOOOOOOOOOOOOOOOOOOOOOOOOOOOOOXXXOOXX..                ",
"                 ..XXOOXXXOOOOOOOOOooooooooOOOOOOOOOOOOOOOOOOOOOOOOOOOOOOOOXXXOOXX..                ",
"                 ..XXOOXXXOOOOOOOOOooooooooOOOOOOOOOOOOOOOOOOOOOOOOOOOOOOOOXXXOOXX..                ",
"                 ..XXOOXXXOOOOOOOOOooooooooOOOOOOOOOOOOOOOOOOOOOOOOOOOOOOOOXXXOOXX..                ",
"                 ..XXOOXXXOOOOOOOOOooooooooOOOOOOOOOOOOOOOOOOOOOOOOOOOOOOOOXXXOOXX..                ",
"                 ..XXOOXXXOOOOOOOOOooooooooOOOOOOOOOOOOOOOOOOOOOOOOOOOOOOOOXXXOOXX..                ",
"                 ..XXOOXXXOOOOOOOOOooooooooOOOOOOOOOOOOOOOOOOOOOOOOOOOOOOOOXXXOOXX..                ",
"                 ..XXOOXXXOOOOOOOOOooooooooOOOOOOOOOOOOOOOOOOOOOOOOOOOOOOOOXXXOOXX..                ",
"                 ..XXOOXXXOOOOOOOOOooooooooOOOOOOOOOOOOOOOOOOOOOOOOOOOOOOOOXXXOOXX..                ",
"                 ..XXOOXXXOOOOOOOOOooooooooOOOOOOOOOOOOOOOOOOOOOOOOOOOOOOOOXXXOOXX..                ",
"                 ..XXOOXXXOOOOOOOOOooooooooOOOOOOOOOOOOOOOOOOOOOOOOOOOOOOOOXXXOOXX..                ",
"                 ..XXOOXXXOOOOOOOOOooooooooOOOOOOOOOOOOOOOOOOOOOOOOOOOOOOOOXXXOOXX..                ",
"                 ..XXOOXXXOOOOOOOOOooooooooOOOOOOOOOOOOOOOOOOOOOOOOOOOOOOOOXXXOOXX..                ",
"                 ..XXOOXXXOOOOOOOOOooooooooOOOOOOOOOOOOOOOOOOOOOOOOOOOOOOOOXXXOOXX..                ",
"                 ..XXOOXXXOOOOOOOOOooooooooOOOOOOOOOOOOOOOOOOOOOOOOOOOOOOOOXXXOOXX..                ",
"                 ..XXOOXXXOOOOOOOOOOOOOOOOOOOOOOOOOOOOOOOOOOOOOOOOOOOOOOOOOXXXOOXX..                ",
"                 ..XXOOXXXOOOOOOOOOOOOOOOOOOOOOOOOOOOOOOOOOOOOOOOOOOOOOOOOOXXXOOXX..                ",
"                 ..XXOOXXXOOOOOOOOOOOOOOOOOOOOOOOOOOOOOOOOOOOOOOOOOOOOOOOOOXXXOOXX..                ",
"                 ...................................................................                ",
"                 ...................................................................                ",
"               ..XXXXXXOOXXXXXXXXXXXXXXXXXXXXXXXXXXXXXXXXXXXXXXXXXXXXXXXXXXXOOXXXXXX..              ",
"               ..XXXXXXOOXXXXXXXXXXXXXXXXXXXXXXXXXXXXXXXXXXXXXXXXXXXXXXXXXXXOOXXXXXX..              ",
"                 ...................................................................                ",
"                 ...................................................................                ",
"                                                                                                    ",
"                                                                                                    ",
"                                                                                                    ",
"                                                                                                    ",
"                                                                                                    ",
"                                                                                                    ",
"                                                                                                    ",
"                                                                                                    ",
"                                                                                                    ",
"                                                                                                    ",
"                                                                                                    ",
"                                                                                                    ",
"                                                                                                    ",
"                                                                                                    ",
"                                                                                                    ",
"                                                                                                    ",
"                                                                                                    ",
"                                                                                                    ",
"                                                                                                    "
};
