/* XPM */
static char *_20d5fbe46214119ff65b1e03d3c6d052eQUae2Way8FS2R9[] = {
/* columns rows colors chars-per-pixel */
"100 100 5 1 ",
"  c #613F16",
". c #8A5921",
"X c #825B2D",
"o c #AD6B29",
"O c #9C7951",
/* pixels */
"OOOOXXXXX              .........oooOOOOoooo.............ooooooooOOOOOOOoooooo.......................",
"OOOOXXXXX              .........oooOOOOoooo.............ooooooooOOOOOOOoooooo.......................",
"................................................................oooooo.........XXXXXXXXXXOOO........",
"................................................................oooooo.........XXXXXXXXXXOOO........",
"........................ooooooooooooOOOOOOOOOOOOOOOOOO..................oooooo...........ooOOOOOOO..",
"........................ooooooooooooOOOOOOOOOOOOOOOOOO..................oooooo...........ooOOOOOOO..",
"..OOOOOOOOOOOOOOOOOOO..OOOOOOOOOOooooooooooooOOOOOOOOOOOOOOOOOOOOOO....................ooooooooooo..",
"..OOOOOOOOOOOOOOOOOOO..OOOOOOOOOOooooooooooooOOOOOOOOOOOOOOOOOOOOOO....................ooooooooooo..",
"................ooo..ooooooooooooooooooooooOOooooooooXXXXXXooooooooOOOOOOOOOOOOOOoooooo........ooo..",
"................ooo..ooooooooooooooooooooooOOooooooooXXXXXXooooooooOOOOOOOOOOOOOOoooooo........ooo..",
"............ooooooo...............ooooooooooooooooooooooooo.............oooooooOOOOOOOOoooooooooOO..",
"............ooooooo...............ooooooooooo..oooooooooooo.............oooooooOOOOOOOOoooooooooOO..",
"OO........oooooo........ooooooooooooooooooooo..ooooooOOXXXXXoooooooooooooo........OOOOOOOOO.........",
"OO........oooooo........oooooooooooooooooooooooooooooOOXXXXXoooooooooooooo........OOOOOOOOO.........",
"OO.............................oooooooooooooooooooooo.........ooooooooOOOOOOOOOOOO..................",
"OO.............................oooooooooooooooooooooo.........ooooooooOOOOOOOOOOOO..................",
"..OO.......oooo  ........  ..OOOOOOOooooooooooooooooo..ooooooooooooooo..........oooooooooooooooo....",
"..OO.......oooo  ........  ..OOOOOOOooooooooooooooooo..ooooooooooooooo..........oooooooooooooooo....",
"ooOO...oooooooooooo....ooooOOOOOOOOOooooooooooooooooo.....oooooooooooooooooooooooooooooooooooooo....",
"ooOO...oooooooooooo....ooooOOOOOOOOOooooooooooooooooo.....oooooooooooooooooooooooooooo..............",
"..............ooooo...ooo..OOOOOOO...............ooooooooooooo.......ooooo....oooooooo..............",
"..............ooooo...ooo..OOOOOOO...............ooooooooooooo.......ooooo....oooooo................",
"...OOOOOooooooooooo...ooo..OOOOOOOOOOOOOOOOOOOO.....ooooooooooooo.........oooooooooo................",
"...OOOOOooooooooooo...ooo..OOOOOOOOOOOOOOOOOOOO.....ooooooooooooo.........ooooooooooooo.............",
"..........ooooooooo..........oooooooo..OOOOOOO..ooooooooooooooo      OOOOO..ooooooooooo.............",
"..........ooooooooo..........oooooooo..OOOOOOO..ooooooooooooooo      OOOOO..ooooooooooooooooooOOOO..",
"OO.................OOOOOOOOOOOOOOOOOOOOOOOOOOO..............oooooooOOOOOOO..ooooooooooooooooooOOOO..",
"OO.................OOOOOOOOOOOOOOOOOOOOOOOOOOO..............oooooooOOOOOOO..oooooooooooooooooooooo..",
"OO.................ooOOOOOOOOooooooooooooooooooooooo...........OOOOooooooooooooooo.......ooooooooo..",
"OO.................ooOOOOOOOOooooooooooooooooooooooo...........OOOOooooooooooooooo.......ooooooooo..",
"OOOOOOOOOO.............OOOOOOOOOO..ooooooooooooooooooooooooooOOOOooooooooooooooooooooooooooooooooo..",
"OOOOOOOOOO.............OOOOOOOOOO..ooooooooooooooooooooooooooOOOOooooooooooooooooooooooooooooooooo..",
"OO..................oooooooooooooOOOOOOOOOOOOO..ooooooooOOOOOOOOOOOOOOOOOooo.....oooooooooooo.....XX",
"OO..................oooooooooooooOOOOOOOOOOOOO..ooooooooOOOOOOOOOOOOOOOOOooo.....oooooooooooo.....XX",
".................ooooooooooooooooooOOOOOOO......oooooooooOO.........ooooooooooooOOOOOOOOOooooooooo..",
".................ooooooooooooooooooOOOOOOO......oooooooooOO.........ooooooooooooOOOOOOOOOooooooooo..",
"........OO..ooooooooooOOOOOOOOooooo..........ooooooooooooOOOOOOOoo..oo......................oooooo..",
"........OO..ooooooooooOOOOOOOOooooo..........ooooooooooooOOOOOOOoo..oo......................oooooo..",
"...........ooooooooooooo..............oooooooooooooooOOOOOXX........ooooooo.......................oo",
"...........ooooooooooooo..............oooooooooooooooOOOOOXX........ooooooo.......................oo",
"..................oooooooo............  oooooooooooOOOOOOOOOOOOOOOOO      oooooooooOOOOOOOOOoooo....",
"..................oooooooo............  oooooooooooOOOOOOOOOOOOOOOOO      oooooooooOOOOOOOOOoooo....",
".......oooooooooooooooooooooo..............OOOOOOOOOOOOOOOOOOOOoooooooooo...........ooooooo.........",
".......oooooooooooooooooooooo..............OOOOOOOOOOOOOOOOOOOOoooooooooo...........ooooooo.........",
"..OOOOOOOooooooooooooooooooooooooooooooOOOOOOOOOoooooooooo..................................OOOOOO..",
"..OOOOOOOooooooooooooooooooooooooooooooOOOOOOOOOoooooooooo..................................OOOOOO..",
".................ooooooooooooXXXXXX.......oooooooo..........oooooooooooooo...........OOOOOOOOOOO....",
".................ooooooooooooXXXXXX.......oooooooo..........oooooooooooooo...........OOOOOOOOOOO....",
"..ooooOOOOOOOOooooooo.......................ooooooooo.......OOOOooooooooo.......................oooo",
"..ooooOOOOOOOOooooooo.......................ooooooooo.......OOOOooooooooo.......................oooo",
"oo.......oooooooooooooooooooOOOOOOOOOOOOOOOOOOOOOooooooooooooooo......oooooooooooooooooooooooo......",
"oo.......oooooooooooooooooooOOOOOOOOOOOOOOOOOOOOOooooooooooooooo......oooooooooooooooooooooooo......",
".............ooooooooooooooooooooOOOOOOOOOOooooooooooooooooooooooooooooooo...........ooooooooooooo..",
".............ooooooooooooooooooooOOOOOOOOOOooooooooooooooooooooooooooooooo...........ooooooooooooo..",
"...................oooooooooooo..........oooooooooooooooooooooooooooooOOOOOOOOOOOOOOOoooooo.........",
"...................oooooooooooo..........oooooooooooooooooooooooooooooOOOOOOOOOOOOOOOoooooo.........",
"..........ooooOOOOOOOOOooooooooooooooooooooooooooooo............oooooooooooo........................",
"..........ooooOOOOOOOOOooooooooooooooooooooooooooooo............oooooooooooo........................",
".......................      ooooooooooooo..............oooooooooooooooooooooooOOOOOOOOOOOOOOOOO....",
".......................      ooooooooooooo..............oooooooooooooooooooooooOOOOOOOOOOOOOOOOO....",
"OOooooooooo.................OOOOOOooooooooooo...........ooooooooooOOOOOOOOOOOOOOOooooooo............",
"OOooooooooo.................OOOOOOooooooooooo...........ooooooooooOOOOOOOOOOOOOOOooooooo............",
"OO.............oooooooooooooooooooooooooooooo...........oooooooooooooooooooooo......oooooooo........",
"OO.............oooooooooooooooooooooooooooooo...........oooooooooooooooooooooo......oooooooo........",
".......ooooooooOOOOOOOooooooooooooooooooooooo...........oooooooooo........OOOOOOOOOOOooo............",
".......ooooooooOOOOOOOooooooooooooooooooooooo...........oooooooooo........OOOOOOOOOOOooo............",
"...........OOOOOOOOOO...............ooooooooo...........OOOOOOOOOOOOoooooooooooooooo................",
"...........OOOOOOOOOO...............ooooooooo...........OOOOOOOOOOOOoooooooooooooooo................",
"........ooooooooooooOOOOOOOOOoooooooooooooooo..........OOOOOO............ooooooooooooooo......  oooo",
"........ooooooooooooOOOOOOOOOoooooooooooooooo..........OOOOOO............ooooooooooooooo......  oooo",
"....oooooooooooooooooooooooooooooooo....oooooooooooooOOOOOOOOOOoooooooooooooooo....ooooooooooo......",
"....oooooooooooooooooooooooooooooooo....oooooooooooooOOOOOOOOOOoooooooooooooooo....ooooooooooo......",
"..ooooOOOO..............ooooooooooooooooooooooooooooooooooooooo.....oooooOOOOOOOOooooo..............",
"..ooooOOOO..............ooooooooooooooooooooooooooooooooooooooo.....oooooOOOOOOOOooooo..............",
"........................ooooooOOOOOOOooooo........................ooooooXXXX....oooooooooooOOOOO....",
"........................ooooooOOOOOOOooooo........................ooooooXXXX....oooooooooooOOOOO....",
"..............oooooooooooooooooooooo.......................ooooooooooooo...........oooooooo.........",
"..............oooooooooooooooooooooo.......................ooooooooooooo...........oooooooo.........",
".....OOOOOOOOOOooooooooooooooooooooooooooooooooooooooooooOOOOOOOOOooooooooooo...ooooooooooooooooXX..",
".....OOOOOOOOOOooooooooooooooooooooooooooooooooooooooooooOOOOOOOOOooooooooooo...ooooooooooooooooXX..",
"..oooooooooo.........oooooooooooooooooooooooooooo..........OOOOOOOOOOOOoooooooooooooooOOOOOOOOOOOO..",
"..oooooooooo.........oooooooooooooooooooooooooooo..........OOOOOOOOOOOOoooooooooooooooOOOOOOOOOOOO..",
"......oo.............OOOOOOOOooooooooooooooooooooooo..............ooooooooooooooooooOOOOOO........oo",
"......oo.............OOOOOOOOooooooooooooooooooooooo..............ooooooooooooooooooOOOOOO........oo",
"OOoooooooOOOOOOOOOOOO...........oooooooooooooooooooo............oooooooooooooooooooo........oooooooo",
"OOoooooooOOOOOOOOOOOO...........oooooooooooooooooooo............oooooooooooooooooooo........oooooooo",
"OOOOoooooooooooooooooooooooooooooooooo.......ooooooo.............ooooooooooooooooooooooooooooo......",
"OOOOoooooooooooooooooooooooooooooooooo.......ooooooo.............ooooooooooooooooooooooooooooo......",
"OO............ooooooooooooooooooooooooo.......oooooo.............ooooooooooooooooooooooooooooooooo..",
"OO............ooooooooooooooooooooooooo.......oooooo...........ooooooooooooooooooooooooooooooooooo..",
"..oooooooo............oooooooooooooooooooo....oooooo...........oooooooooooOOOOOOO.......oooooooooo..",
"..oooooooo............OOoooooooooooooooooooo..oooooooooooo........ooooooooOOOOOOO.......oooooooooo..",
"..oooooooooooooo.....OOOOOOOooooooooooooooooooooooooooooooo.......oooooooo....OOOOOOOOooooooooooo...",
"..oooooooooooooo.....OOOOOOOooooooooooooooooooooooooooooooo.......oooooooo....OOOOOOOOooooooooooo...",
"..oooooooooooooooooOOOOOoooooo...........oooooooooooooooooo.......ooooooo.......ooooooooooooooooo...",
"..oooooooooooooooooOOOOOoooooo...........ooooooOOOOOOOOoooo.......ooooooo.......oooooooooooooooooo..",
"..ooooooooooooooooooooooooooooooo......    ooooOOOOOOOOoooo.......oooooooooooooooooooooooooooooooo..",
"..ooooooooooooooooooooooooooooooo......    oooooooooOOOoooo.......oooooooooooooooooooooooooooooooo  ",
"..XXXXXXXXXXoooooooooo.......................oooooooOOOOOOOO......ooooooooooXXXXXXOOOOOOOOOOoooooo  ",
"..XXXXXXXXXXoooooooooo.......................oooooooOOOOOOOO....ooooooooooooXXXXXXOOOOOOOOOOoooooo  "
};
