/* XPM */
static char *_6042dcc3a894f7cb1eb5fd350e10bc0YcaOqNp9vmJMIcKl[] = {
/* columns rows colors chars-per-pixel */
"100 100 5 1 ",
"  c None",
". c black",
"X c #D32F2F",
"o c #FFC107",
"O c #A6A3A6",
/* pixels */
"                                                                                                    ",
"                                                                                                    ",
"                                                                                                    ",
"                                                                                                    ",
"                                                                                                    ",
"                                                                                                    ",
"                                                                                                    ",
"                                                                                                    ",
"                                                                                                    ",
"                                                                                                    ",
"                                                                                                    ",
"                                                                                                    ",
"                                                                                                    ",
"                                                                                                    ",
"                                                          ...                                       ",
"                                         ....................                                       ",
"                                         ....................                                       ",
"                                       ..XXXXXXXXXXXXXXXXX..                                        ",
"                                       ..XXXXXXXXXXXXXXXXX..                                        ",
"                                     ..XXXXXXXXXXXXXXXXXXX..                                        ",
"                                     ..XXXXXXXXXXXXXXXXXXX..                                        ",
"                                   ..XXXXXXXXXXXXXXXXXXXXX..                                        ",
"                                   ..XXXXXXXXXXXXXXXXXXXXX..                                        ",
"                                 ..XXXXXXXXXXXXXXXXXXXXXXX..                                        ",
"                                 ..XXXXXXXXXXXXXXXXXXXXXXX..                                        ",
"                               ..XXXXXXOXXXXXXXXXXXOXXXXXX..                                        ",
"                               ..XXXXXXXOXXXXXXXXXOXXXXXXX..                                        ",
"                               ..XXXXXXXXOXXXXXXXOXXXXXXXX..                                        ",
"                               ..XXXXXXXXXOXXXXXOXXXXXXXXX..                                        ",
"                               ..XXXXXXXXXXOXXXOXXXXXXXXXX..                                        ",
"                               ..XXXXXXXXXXXOXOXXXXXXXXXXX..                                        ",
"                               ..XXXXXXXXXXXXXXXXXXXXXXXXX..                                        ",
"                               ..XXXXXXXXXXXOXOXXXXXXXXXXX..                                        ",
"                               ..XXXXXXXXXXOXXXOXXXXXXXXXX..                                        ",
"                               ..XXXXXXXXXOXXXXXOXXXXXXXXX..                                        ",
"                               ..XXXXXXXXOXXXXXXXOXXXXXXXX..                                        ",
"                               ..XXXXXXXOXXXXXXXXXOXXXXXXX..                                        ",
"                               ..XXXXXXOXXXXXXXXXXXOXXXXXX..                                        ",
"                               ..XXXXXXXXXXXXXXXXXXXXXXXXX..                                        ",
"                               ..XXXXXXXXXXXXXXXXXXXXXXXXX..                                        ",
"                               ..XXXooooXooXooXooooXooXXXX..                                        ",
"                               ..XXXooooXooXooXooooXooXXXX..                                        ",
"                               ..XXXooXXXooXooXooXXXooXXXX..                                        ",
"                               ..XXXoooXXooXooXoooXXooXXXX..                                        ",
"                               ..XXXoooXXooXooXoooXXooXXXX..                                        ",
"                               ..XXXooXXXooXooXooXXXooXXXX..                                        ",
"                               ..XXXooXXXooXooXooooXoooXXX..                                        ",
"                               ..XXXooXXXoooooXooooXoooXXX..                                        ",
"                               ..XXXXXXXXXXXXXXXXXXXXXXXXX..                                        ",
"                               ..XXXXXXXXXXXXXXXXXXXXXXXXX..                                        ",
"                               .............................                                        ",
"                               .............................                                        ",
"                                                                                                    ",
"                                                                                                    ",
"                                                                                                    ",
"                                                                                                    ",
"                                                                                                    ",
"                                                                                                    ",
"                                                                                                    ",
"                                                                                                    ",
"                                                                                                    ",
"                                                                                                    ",
"                                                                                                    ",
"                                                                                                    ",
"                                                                                                    ",
"                                                                                                    ",
"                                                                                                    ",
"                                                                                                    ",
"                                                                                                    ",
"                                                                                                    ",
"                                                                                                    ",
"                                                                                                    ",
"                                                                                                    ",
"                                                                                                    ",
"                                                                                                    ",
"                                                                                                    ",
"                                                                                                    ",
"                                                                                                    ",
"                                                                                                    ",
"                                                                                                    ",
"                                                                                                    ",
"                                                                                                    ",
"                                                                                                    ",
"                                                                                                    ",
"                                                                                                    ",
"                                                                                                    ",
"                                                                                                    ",
"                                                                                                    ",
"                                                                                                    ",
"                                                                                                    ",
"                                                                                                    ",
"                                                                                                    ",
"                                                                                                    ",
"                                                                                                    ",
"                                                                                                    ",
"                                                                                                    ",
"                                                                                                    ",
"                                                                                                    ",
"                                                                                                    ",
"                                                                                                    "
};
