/* XPM */
static char *d0ade16e78f04401ce63ace65ed27943QII3GuYUmr2V9566[] = {
/* columns rows colors chars-per-pixel */
"100 100 7 1 ",
"  c None",
". c black",
"X c #7A797A",
"o c #4CAF50",
"O c #8BC34A",
"+ c #DEC86F",
"@ c #ABA8AB",
/* pixels */
"                                                                                                    ",
"                                                                                                    ",
"                                                                                                    ",
"                                                                                                    ",
"                                                                                                    ",
"                                                                                                    ",
"                                                                                                    ",
"                                                                                                    ",
"                                                                                                    ",
"                                                                                                    ",
"                                                                                                    ",
"                                                                                                    ",
"                                                                                                    ",
"                                           oooooooo                                                 ",
"                                           oooooooo                                                 ",
"                                       ooooOOOOOOOOoooo                                             ",
"                                       ooooOOOOOOOOoooo                                             ",
"                                   ooooOOOOOOOOOOOOOOOOoooo                                         ",
"                                   ooooOOOOOOOOOOOOOOOOoooo                                         ",
"                                 ooOOOOOOOOOOOOOOOOOOOOOOOOoo                                       ",
"                                 ooOOOOOOOOOOOOOOOOOOOOOOOOoo                                       ",
"                               ooOOOOOOOOOOOOOOOOOOOOOOOOOOOOoo                                     ",
"                               ooOOOOOOOOOOOOOOOOOOOOOOOOOOOOoo                                     ",
"                               ooOOOOOOOOOOOOOOOOOOOOOOOOOOOOoo                                     ",
"                               ooOOOOOOOOOOOOOOOOOOOOOOOOOOOOoo                                     ",
"                               ooOOOOOOOOOOOOOOOOOOOOOOOOOOOOoo                                     ",
"                       ........ooOOOOOOOOOOOOOOOOOOOOOOOOOOOOoo........                             ",
"                       ..........OOOOOOOOOOOOOOOOOOOOOOOOOOOO..........                             ",
"                   ....@@@@@@@@..OOOOOOOOOOOOOOOOOOOOOOOOOOOO..@@@@@@@@....                         ",
"                   ....@@@@@@@@@@....OOOOOOOOOOOOOOOOOOOO....@@@@@@@@@@....                         ",
"                 ..@@@@@@@@@@@@@@....OOOOOOOOOOOOOOOOOOOO....@@@@@@@@@@@@@@..                       ",
"                 ..@@@@@@@@@@@XXXX@@@....OOOOOOOOOOOO....@@@XXXX@@@@@@@@@@@..                       ",
"               ..@@@@@@@@@@@@@XXXX@@@....OOOOOOOOOOOO....@@@XXXX@@@@@@@@@@@@@..                     ",
"               ..@@@@@@@@@XXXX@@@@@@@@@@@............@@@@@@@@@@@XXXX@@@@@@@@@..                     ",
"             ..@@@@@@@@@@@XXXX@@@@@@@@@@@............@@@@@@@@@@@XXXX@@@@@@@@@@@..                   ",
"             ..@@@@@@@XXXX@@@@@@@@@@@XXXX@@@@@@@@@@@@XXXX@@@@@@@@@@@XXXX@@@@@@@..                   ",
"           ....@@@@@@@XXXX@@@@@@@@@@@XXXX@@@@@@@@@@@@XXXX@@@@@@@@@@@XXXX@@@@@@@..                   ",
"           ....@@XXXXX@@@@@@@@@@@XXXX@@@@@@@@@@@@@@@@@@@@XXXX@@@@@@@@@@@XXXXX@@..                   ",
"           ..@@..XXXXX@@@@@@@@@@@XXXX@@@@@@@@@@@@@@@@@@@@XXXX@@@@@@@@@@@XXXXX....                   ",
"           ..@@..@@@@@@@@@@@@@@XX@@@@@@@@@@@@@@@@@@@@@@@@@@@@XX@@@@@@@@@@@@@@....                   ",
"           ..@@@@..@@@@@@@@@@@@XX@@@@@@@@@@@@@@@@@@@@@@@@@@@@XX@@@@@@@@@@@@..@@..                   ",
"           ..@@@@..@@@@@@@@@@XX@@@@@@@@@@@@@@@@@@@@@@@@@@@@@@@@XX@@@@@@@@@@..@@..                   ",
"           ..@@@@@@....@@@@@@XX@@@@@@@@@@@@@@@@@@@@@@@@@@@@@@@@XX@@@@@@....@@@@..                   ",
"           ..@@@@@@....@@@@@@XX@@@@@@@@@@@@@@@@@@@@@@@@@@@@@@@@XX@@@@@@....@@@@..                   ",
"           ..@@@@@@@@@@......@@@@@@@@@@@@@@@@@@@@@@@@@@@@@@@@@@@@......@@@@@@@@..                   ",
"           ..@@@@@@@@@@......@@@@@@@@@@@@@@@@@@@@@@@@@@@@@@@@@@@@......@@@@@@@@..                   ",
"           ..@@@@@@@@@@@@@@@@........@@@@@@@@@@@@@@@@@@@@........@@@@@@@@@@@@@@..                   ",
"           ..@@@@@@@@@@@@@@@@........@@@@@@@@@@@@@@@@@@@@........@@@@@@@@@@@@@@..                   ",
"           ..@@@@@@@@++@@@@@@@@@@@@@@....................@@@@@@@@@@@++@@@@@@@@@..                   ",
"           ...@@@@@++++++@@@@@@@@@@@@....................@@@@@@@@@++++++@@@@@....                   ",
"            ..@@@@@++++++@@@@@@@@@@@@@@@@@@@@@@@@@@@@@@@@@@@@@@@@@++++++@@@@@..                     ",
"              ....@@@++@@@@@@@@@@@@@@@@@@@@++++@@@@@@@@@@@@@@@@@@@@@++@@@....                       ",
"              ....@@@@@@@@@@@@@@@@@@@@@@@@@++++@@@@@@@@@@@@@@@@@@@@@@@@@@....                       ",
"                  ......@@@@@@@@@@@@@@@@@++++++++@@@@@@@@@@@@@@@@@@......                           ",
"                  ......@@@@@@@@@@@@@@@@@++++++++@@@@@@@@@@@@@@@@@@......                           ",
"                        ........@@@@@@@@@@@++++@@@@@@@@@@@@........                                 ",
"                        ........@@@@@@@@@@@@@@@@@@@@@@@@@@@........                                 ",
"                              .............................                                         ",
"                              .............................                                         ",
"                            ..                             ..                                       ",
"                            ..                             ..                                       ",
"                          ..                                 ..                                     ",
"                          ..                                 ..                                     ",
"                        ..                                     ..                                   ",
"                        ..                                     ..                                   ",
"                      ..                                         ..                                 ",
"                      ..                                         ..                                 ",
"                    ..                                             ..                               ",
"                    ..                                             ..                               ",
"                                                                                                    ",
"                                                                                                    ",
"                                                                                                    ",
"                                                                                                    ",
"                                                                                                    ",
"                                                                                                    ",
"                                                                                                    ",
"                                                                                                    ",
"                                                                                                    ",
"                                                                                                    ",
"                                                                                                    ",
"                                                                                                    ",
"                                                                                                    ",
"                                                                                                    ",
"                                                                                                    ",
"                                                                                                    ",
"                                                                                                    ",
"                                                                                                    ",
"                                                                                                    ",
"                                                                                                    ",
"                                                                                                    ",
"                                                                                                    ",
"                                                                                                    ",
"                                                                                                    ",
"                                                                                                    ",
"                                                                                                    ",
"                                                                                                    ",
"                                                                                                    ",
"                                                                                                    ",
"                                                                                                    ",
"                                                                                                    "
};
