/* XPM */
static char *fcdf4c7b0eca43abd143d212870861acrIsV39eT54YcSYxu[] = {
/* columns rows colors chars-per-pixel */
"100 100 2 1 ",
"  c #2B272B",
". c #576157",
/* pixels */
"                                                                                                    ",
"                                                                                                    ",
"    ............................................................................................    ",
"    ............................................................................................    ",
"  ..  ........................................................................................  ..  ",
"  ..  ........................................................................................  ..  ",
"  ....  ....................................................................................  ....  ",
"  ....  ....................................................................................  ....  ",
"  ......  ................................................................................  ......  ",
"  ......  ................................................................................  ......  ",
"  ........  ............................................................................  ........  ",
"  ........  ............................................................................  ........  ",
"  ..........  ........................................................................  ..........  ",
"  ..........  ........................................................................  ..........  ",
"  ..........                                                                            ..........  ",
"  ..........                                                                            ..........  ",
"  ..........  ........................................................................  ..........  ",
"  ..........  ........................................................................  ..........  ",
"  ..........  ........................................................................  ..........  ",
"  ..........  ........................................................................  ..........  ",
"  ..........  ........................................................................  ..........  ",
"  ..........  ........................................................................  ..........  ",
"  ..........  ........................................................................  ..........  ",
"  ..........  ........................................................................  ..........  ",
"  ..........  ........................................................................  ..........  ",
"  ..........  ........................................................................  ..........  ",
"  ..........  ........................................................................  ..........  ",
"  ..........  ........................................................................  ..........  ",
"  ..........  ........................................................................  ..........  ",
"  ..........  ........................................................................  ..........  ",
"  ..........  ........................................................................  ..........  ",
"  ..........  ........................................................................  ..........  ",
"  ..........  ........................................................................  ..........  ",
"  ..........  ........................................................................  ..........  ",
"  ..........  ........................................................................  ..........  ",
"  ..........  ........................................................................  ..........  ",
"  ..........  ........................................................................  ..........  ",
"  ..........  ........................................................................  ..........  ",
"  ..........  ........................................................................  ..........  ",
"  ..........  ........................................................................  ..........  ",
"  ..........  ........................................................................  ..........  ",
"  ..........  ........................................................................  ..........  ",
"  ..........  ........................................................................  ..........  ",
"  ..........  ........................................................................  ..........  ",
"  ..........  ........................................................................  ..........  ",
"  ..........  ........................................................................  ..........  ",
"  ..........  ........................................................................  ..........  ",
"  ..........  ........................................................................  ..........  ",
"  ..........  ........................................................................  ..........  ",
"  ..........  ........................................................................  ..........  ",
"  ..........  ........................................................................  ..........  ",
"  ..........  ........................................................................  ..........  ",
"  ..........  ........................................................................  ..........  ",
"  ..........  ........................................................................  ..........  ",
"  ..........  ........................................................................  ..........  ",
"  ..........  ........................................................................  ..........  ",
"  ..........  ........................................................................  ..........  ",
"  ..........  ........................................................................  ..........  ",
"  ..........  ........................................................................  ..........  ",
"  ..........  ........................................................................  ..........  ",
"  ..........  ........................................................................  ..........  ",
"  ..........  ........................................................................  ..........  ",
"  ..........  ........................................................................  ..........  ",
"  ..........  ........................................................................  ..........  ",
"  ..........  ........................................................................  ..........  ",
"  ..........  ........................................................................  ..........  ",
"  ..........  ........................................................................  ..........  ",
"  ..........  ........................................................................  ..........  ",
"  ..........  ........................................................................  ..........  ",
"  ..........  ........................................................................  ..........  ",
"  ..........  ........................................................................  ..........  ",
"  ..........  ........................................................................  ..........  ",
"  ..........  ........................................................................  ..........  ",
"  ..........  ........................................................................  ..........  ",
"  ..........  ........................................................................  ..........  ",
"  ..........  ........................................................................  ..........  ",
"  ..........  ........................................................................  ..........  ",
"  ..........  ........................................................................  ..........  ",
"  ..........  ........................................................................  ..........  ",
"  ..........  ........................................................................  ..........  ",
"  ..........  ........................................................................  ..........  ",
"  ..........  ........................................................................  ..........  ",
"  ..........  ........................................................................  ..........  ",
"  ..........  ........................................................................  ..........  ",
"  ..........                                                                            ..........  ",
"  ..........                                                                            ..........  ",
"  ..........  ........................................................................  ..........  ",
"  ..........  ........................................................................  ..........  ",
"  ........  ............................................................................  ........  ",
"  ........  ............................................................................  ........  ",
"  ......  ................................................................................  ......  ",
"  ......  ................................................................................  ......  ",
"  ....  ....................................................................................  ....  ",
"  ....  ....................................................................................  ....  ",
"  ..  ........................................................................................  ..  ",
"  ..  ........................................................................................  ..  ",
"    ............................................................................................    ",
"    ............................................................................................    ",
"                                                                                                    ",
"                                                                                                    "
};
